<svg xmlns="http://www.w3.org/2000/svg" xmlns:xlink="http://www.w3.org/1999/xlink" version="1.1" x="0px" y="0px" viewBox="0 0 100 125" style="enable-background:new 0 0 100 100;" xml:space="preserve"><style type="text/css">
	.st0{fill:#010202;}
</style><g><path class="st0" d="M51.1,14.7c-8.6,0-15.7,7-15.7,15.7c0,8.6,7,15.7,15.7,15.7c8.6,0,15.7-7,15.7-15.7   C66.8,21.8,59.8,14.7,51.1,14.7z M51.1,45.5c-8.3,0-15.1-6.8-15.1-15.1s6.8-15.1,15.1-15.1c8.3,0,15.1,6.8,15.1,15.1   S59.4,45.5,51.1,45.5z"/><path class="st0" d="M51.1,15.9c-8,0-14.5,6.5-14.5,14.5s6.5,14.5,14.5,14.5c8,0,14.5-6.5,14.5-14.5   S59.1,15.9,51.1,15.9z M51.1,38.8c-4.6,0-8.4-3.8-8.4-8.4c0-4.6,3.8-8.4,8.4-8.4s8.4,3.8,8.4,8.4C59.5,35,55.7,38.8,51.1,38.8z"/><path class="st0" d="M51.1,22.6c-4.3,0-7.8,3.5-7.8,7.8s3.5,7.8,7.8,7.8s7.8-3.5,7.8-7.8S55.4,22.6,51.1,22.6z    M51.1,37.8c-4.1,0-7.4-3.3-7.4-7.4S47,23,51.1,23s7.4,3.3,7.4,7.4S55.2,37.8,51.1,37.8z"/><path class="st0" d="M51.1,23.2c-4,0-7.2,3.2-7.2,7.2s3.2,7.2,7.2,7.2s7.2-3.2,7.2-7.2S55.1,23.2,51.1,23.2z    M51.1,37.4c-3.8,0-7-3.1-7-7s3.1-7,7-7c3.8,0,7,3.1,7,7S55,37.4,51.1,37.4z"/><path class="st0" d="M89.4,22.2c0-0.4,0-0.9,0-1.3c0-0.2,0-0.3,0-0.5c0-0.4,0-0.8,0-1.1c0-0.1,0-0.3,0-0.4   c0-0.3,0-0.6,0-0.8c0-0.1,0-0.3,0-0.4c-0.1-1.1-0.1-1.8-0.2-1.8c0,0,0,0,0,0c0.1-0.1-0.5-0.2-1.7-0.3c-0.1,0-0.2,0-0.3,0   c-0.3,0-0.6,0-1,0c-0.1,0-0.3,0-0.4,0c-0.4,0-0.7,0-1.1,0c-0.2,0-0.3,0-0.5,0c-0.4,0-0.9,0-1.3,0c-0.3,0-0.7,0-1,0   c-0.4,0-0.9,0-1.3,0c-0.5,0-0.9,0-1.3,0c-0.3,0-0.7,0-1,0c-0.4,0-0.9,0-1.3,0c-0.2,0-0.3,0-0.5,0c-0.4,0-0.8,0-1.1,0   c-0.1,0-0.3,0-0.4,0c-0.3,0-0.7,0-1,0c-0.1,0-0.2,0-0.3,0c-1.1,0.1-1.8,0.2-1.7,0.3c0,0,0,0,0,0c-0.1,0-0.2,0.7-0.2,1.8   c0,0.1,0,0.2,0,0.4c0,0.3,0,0.5,0,0.8c0,0.1,0,0.3,0,0.4c0,0.4,0,0.7,0,1.1c0,0.2,0,0.3,0,0.5c0,0.4,0,0.9,0,1.3c0,0.3,0,0.7,0,1   c0,0.9,0,1.8,0,2.7c0,0.3,0,0.7,0,1c0,0.4,0,0.9,0,1.3c0,0.2,0,0.3,0,0.5c0,0.4,0,0.8,0,1.1c0,0.1,0,0.3,0,0.4c0,0.3,0,0.6,0,0.8   c0,0.1,0,0.3,0,0.4c0.1,1.1,0.1,1.8,0.2,1.8c0,0,0,0,0,0c-0.1,0.1,0.5,0.2,1.7,0.3c0.1,0,0.2,0,0.3,0c0.3,0,0.6,0,1,0   c0.1,0,0.3,0,0.4,0c0.4,0,0.7,0,1.1,0c0.2,0,0.3,0,0.5,0c0.4,0,0.9,0,1.3,0c0.3,0,0.7,0,1,0c0.4,0,0.9,0,1.3,0c0.5,0,0.9,0,1.3,0   c0.3,0,0.7,0,1,0c0.4,0,0.9,0,1.3,0c0.2,0,0.3,0,0.5,0c0.4,0,0.8,0,1.1,0c0.1,0,0.3,0,0.4,0c0.3,0,0.7,0,1,0c0.1,0,0.2,0,0.3,0   c1.1-0.1,1.8-0.2,1.7-0.3c0,0,0,0,0,0c0.1,0,0.2-0.7,0.2-1.8c0-0.1,0-0.2,0-0.4c0-0.3,0-0.5,0-0.8c0-0.1,0-0.3,0-0.4   c0-0.4,0-0.7,0-1.1c0-0.2,0-0.3,0-0.5c0-0.4,0-0.9,0-1.3c0-0.3,0-0.7,0-1c0-0.9,0-1.8,0-2.7C89.4,22.8,89.4,22.5,89.4,22.2z    M88.7,16.1C88.8,16.1,88.8,16.1,88.7,16.1C88.8,16.1,88.8,16.1,88.7,16.1c0.1,0.2,0.1,0.5,0.1,1c-0.3-0.4-0.7-0.7-1-1.1   C88.3,16,88.6,16.1,88.7,16.1z M87.5,16c0.5,0.4,1,0.9,1.4,1.4c0,0.2,0,0.5,0,0.8c-0.6-0.9-1.4-1.6-2.3-2.3   C87,15.9,87.3,16,87.5,16z M86.3,15.9c1,0.7,1.9,1.6,2.6,2.6c0,0.3,0,0.6,0,1c-0.9-1.5-2.1-2.8-3.7-3.7   C85.7,15.9,86,15.9,86.3,15.9z M84.9,15.9c1.7,0.9,3.2,2.4,4.1,4.1c0,0.3,0,0.6,0,1c-1-2.3-2.8-4.1-5.1-5.1   C84.3,15.9,84.6,15.9,84.9,15.9z M71.9,16.1C71.9,16.1,71.9,16.1,71.9,16.1C71.9,16.1,71.9,16.1,71.9,16.1c0.2-0.1,0.5-0.1,0.9-0.1   c-0.4,0.3-0.7,0.7-1,1.1C71.8,16.6,71.8,16.3,71.9,16.1z M71.7,17.4c0.4-0.5,0.9-1,1.4-1.4c0.3,0,0.5,0,0.9,0   c-0.9,0.6-1.6,1.4-2.3,2.3C71.7,17.9,71.7,17.7,71.7,17.4z M71.7,18.6c0.7-1,1.6-1.9,2.6-2.6c0.3,0,0.6,0,1,0   c-1.5,0.9-2.8,2.2-3.7,3.7C71.7,19.2,71.7,18.9,71.7,18.6z M71.7,20c0.9-1.7,2.4-3.2,4.1-4.1c0.3,0,0.6,0,1,0   c-2.3,1-4.1,2.8-5.1,5.1C71.6,20.6,71.6,20.3,71.7,20z M71.9,33C71.9,33,71.9,33,71.9,33C71.9,33,71.9,33,71.9,33   c-0.1-0.2-0.1-0.5-0.1-1c0.3,0.4,0.7,0.7,1,1.1C72.4,33,72.1,33,71.9,33z M73.1,33.1c-0.5-0.4-1-0.9-1.4-1.4c0-0.2,0-0.5,0-0.8   c0.6,0.9,1.4,1.6,2.3,2.3C73.7,33.1,73.4,33.1,73.1,33.1z M74.3,33.2c-1-0.7-1.9-1.6-2.6-2.6c0-0.3,0-0.6,0-1   c0.9,1.5,2.1,2.8,3.7,3.7C75,33.2,74.6,33.2,74.3,33.2z M75.8,33.2c-1.7-0.9-3.2-2.4-4.1-4.1c0-0.3,0-0.6,0-1   c1,2.3,2.8,4.1,5.1,5.1C76.4,33.2,76.1,33.2,75.8,33.2z M88.8,33C88.8,33,88.8,33,88.8,33C88.8,33,88.8,33,88.8,33   c-0.2,0.1-0.5,0.1-0.9,0.1c0.4-0.3,0.7-0.7,1-1.1C88.9,32.4,88.8,32.8,88.8,33z M88.9,31.7c-0.4,0.5-0.9,1-1.4,1.4   c-0.3,0-0.5,0-0.9,0c0.9-0.6,1.6-1.4,2.3-2.3C88.9,31.2,88.9,31.4,88.9,31.7z M89,30.5c-0.7,1-1.6,1.9-2.6,2.6c-0.3,0-0.6,0-1,0   c1.5-0.9,2.8-2.2,3.7-3.7C89,29.9,89,30.2,89,30.5z M89,29.1c-0.9,1.7-2.4,3.2-4.1,4.1c-0.3,0-0.6,0-1,0c2.3-1,4.1-2.8,5.1-5.1   C89,28.5,89,28.8,89,29.1z M89,27.5c-0.5,1.3-1.2,2.5-2.2,3.5v0.1h-0.1c-1,1-2.1,1.7-3.5,2.2c-0.9,0-1.9,0-3,0c-1.1,0-2.1,0-3,0   c-1.3-0.5-2.5-1.2-3.5-2.2h-0.1V31c-1-1-1.7-2.2-2.2-3.5c0-1.9,0-4.1,0-6c0.5-1.3,1.2-2.5,2.2-3.5V18h0.1c1-1,2.1-1.7,3.5-2.2   c0.9,0,1.9,0,3,0c1.1,0,2.1,0,3,0c1.3,0.5,2.5,1.2,3.5,2.2h0.1v0.1c1,1,1.7,2.2,2.2,3.5C89.1,23.5,89.1,25.6,89,27.5z"/><path class="st0" d="M21.4,36c-3.8,0-6.9,3.1-6.9,6.9s3.1,6.9,6.9,6.9s6.9-3.1,6.9-6.9S25.3,36,21.4,36z    M21.4,49.5c-3.6,0-6.5-2.9-6.5-6.5c0-3.6,2.9-6.5,6.5-6.5s6.5,2.9,6.5,6.5C28,46.5,25,49.5,21.4,49.5z"/><path class="st0" d="M76.2,36.4c-3.6,0-6.5,2.9-6.5,6.5c0,3.6,2.9,6.5,6.5,6.5c3.6,0,6.5-2.9,6.5-6.5   C82.7,39.3,79.8,36.4,76.2,36.4z M76.2,49.1c-3.4,0-6.1-2.8-6.1-6.1c0-3.4,2.8-6.1,6.1-6.1c3.4,0,6.1,2.8,6.1,6.1   C82.3,46.3,79.6,49.1,76.2,49.1z"/><path class="st0" d="M21.4,37.1c-3.2,0-5.8,2.6-5.8,5.8s2.6,5.8,5.8,5.8s5.8-2.6,5.8-5.8S24.7,37.1,21.4,37.1z    M21.4,48.4c-3,0-5.4-2.4-5.4-5.4c0-3,2.4-5.4,5.4-5.4s5.4,2.4,5.4,5.4C26.9,45.9,24.4,48.4,21.4,48.4z"/><path class="st0" d="M21.6,37.8l-0.2,5.1l3.5-3.7C24.1,38.4,22.9,37.9,21.6,37.8z"/><path class="st0" d="M17.5,46.2l4-3.3l-4.8,1.8C16.8,45.3,17.1,45.8,17.5,46.2z"/><path class="st0" d="M16.3,42.9c0,0.1,0,0.2,0,0.3l5.1-0.3l-0.2-5.1C18.5,37.9,16.3,40.2,16.3,42.9z"/><path class="st0" d="M21.4,48.1c1.8,0,3.4-0.9,4.3-2.3l-4.3-2.8l-3.6,3.6C18.8,47.5,20,48.1,21.4,48.1z"/><path class="st0" d="M26.2,44.9l-4.7-2l4.4,2.7C25.9,45.4,26.1,45.2,26.2,44.9z"/><path class="st0" d="M21.4,42.9l4.8,1.9c0.2-0.6,0.4-1.2,0.4-1.9c0-1.3-0.5-2.5-1.3-3.4L21.4,42.9z"/><path class="st0" d="M79.8,38.9c0-0.2-0.1-0.4-0.3-0.5c-0.2-0.1-0.4-0.1-0.6-0.1c-0.2-0.1-0.4-0.2-0.6-0.3   c-0.1-0.2-0.2-0.4-0.4-0.4c-0.2-0.1-0.4,0-0.6,0.1c-0.2,0-0.4-0.1-0.7-0.1c-0.1-0.1-0.3-0.3-0.5-0.3c-0.2,0-0.4,0.1-0.5,0.3   c-0.2,0-0.5,0.1-0.7,0.1c-0.2-0.1-0.4-0.2-0.6-0.1c-0.2,0.1-0.3,0.2-0.4,0.4c-0.2,0.1-0.4,0.2-0.6,0.3c-0.2,0-0.4,0-0.6,0.1   c-0.2,0.1-0.2,0.3-0.3,0.5c-0.2,0.2-0.3,0.3-0.5,0.5c-0.2,0-0.4,0.1-0.5,0.3c-0.1,0.2-0.1,0.4-0.1,0.6c-0.1,0.2-0.2,0.4-0.3,0.6   c-0.2,0.1-0.4,0.2-0.4,0.4c-0.1,0.2,0,0.4,0.1,0.6c0,0.2-0.1,0.4-0.1,0.7c-0.1,0.1-0.3,0.3-0.3,0.5s0.1,0.4,0.3,0.5   c0,0.2,0.1,0.5,0.1,0.7c-0.1,0.2-0.2,0.4-0.1,0.6c0.1,0.2,0.2,0.3,0.4,0.4c0.1,0.2,0.2,0.4,0.3,0.6c0,0.2,0,0.4,0.1,0.6   c0.1,0.2,0.3,0.2,0.5,0.3c0.2,0.2,0.3,0.3,0.5,0.5c0,0.2,0.1,0.4,0.3,0.5c0.2,0.1,0.4,0.1,0.6,0.1c0.2,0.1,0.4,0.2,0.6,0.3   c0.1,0.2,0.2,0.4,0.4,0.4c0.2,0.1,0.4,0,0.6-0.1c0.2,0,0.4,0.1,0.7,0.1c0.1,0.1,0.3,0.3,0.5,0.3c0.2,0,0.4-0.1,0.5-0.3   c0.2,0,0.5-0.1,0.7-0.1c0.2,0.1,0.4,0.2,0.6,0.1c0.2-0.1,0.3-0.2,0.4-0.4c0.2-0.1,0.4-0.2,0.6-0.3c0.2,0,0.4,0,0.6-0.1   c0.2-0.1,0.2-0.3,0.3-0.5c0.2-0.2,0.3-0.3,0.5-0.5c0.2,0,0.4-0.1,0.5-0.3c0.1-0.2,0.1-0.4,0.1-0.6c0.1-0.2,0.2-0.4,0.3-0.6   c0.2-0.1,0.4-0.2,0.4-0.4c0.1-0.2,0-0.4-0.1-0.6c0-0.2,0.1-0.4,0.1-0.7c0.1-0.1,0.3-0.3,0.3-0.5s-0.1-0.4-0.3-0.5   c0-0.2-0.1-0.5-0.1-0.7c0.1-0.2,0.2-0.4,0.1-0.6c-0.1-0.2-0.2-0.3-0.4-0.4c-0.1-0.2-0.2-0.4-0.3-0.6c0-0.2,0-0.4-0.1-0.6   c-0.1-0.2-0.3-0.2-0.5-0.3C80.1,39.2,80,39,79.8,38.9z"/><path class="st0" d="M30.1,24.9H12.4c-0.6,0-1.1,0.5-1.1,1.1v6.2c0,0.6,0.5,1.1,1.1,1.1h17.8   c0.6,0,1.1-0.5,1.1-1.1V26C31.3,25.4,30.8,24.9,30.1,24.9z M31.1,32.2c0,0.5-0.4,0.9-0.9,0.9H12.4c-0.5,0-0.9-0.4-0.9-0.9V26   c0-0.5,0.4-0.9,0.9-0.9h17.8c0.5,0,0.9,0.4,0.9,0.9V32.2z"/><path class="st0" d="M95.7,64.1l-1.4-13.5l-0.9-30.5h1v-1c0-0.6-0.5-1.1-1.1-1.2l0-0.9c-0.1-2.2-1.4-4.1-3.3-5   c-0.3-2.8-2.6-4.9-5.4-4.9H69c-1.7,0-3.1,0.7-4.1,1.9c-0.1,0-0.2,0-0.3,0H34.9c-0.7,0-1.3,0.4-1.5,1.1l-0.6,1.5H12.3   c-3.1,0-5.5,2.4-5.6,5.4l0,0.9c-0.6,0.1-1,0.6-1,1.2v1h0.9L5.7,50.7L4.3,64.1c0,0,0,0,0,0l0.2,4.2c0,0.2,0.1,0.3,0.3,0.3h1.8   c0.1,0,0.2,0.1,0.2,0.2c0,0.1-0.1,0.2-0.2,0.2c0,0,0,0,0,0v0H5.5c-0.4,0-0.6,0.3-0.6,0.7l1.6,19.4c0.2,2,1.8,3.5,3.8,3.5h79.4   c2,0,3.7-1.5,3.8-3.5l1.6-19.5c0-0.3-0.2-0.5-0.5-0.5h-1.2c-0.1,0-0.2-0.1-0.2-0.2c0-0.1,0.1-0.2,0.2-0.2h1.8   c0.2,0,0.3-0.1,0.3-0.3L95.7,64.1C95.7,64.2,95.7,64.2,95.7,64.1z M91.6,79.2c0,0.8-0.6,1.4-1.4,1.4h-2.7v2.5v3.4   c0.2,0.2,1.1,1.3,3.8,1.3c0.1,0,0.2,0.1,0.2,0.2s-0.1,0.2-0.2,0.2c-3.2,0-4.1-1.5-4.2-1.5c0,0,0-0.1,0-0.1l-2-0.7H14.8l-2,0.7   c0,0,0,0.1,0,0.1c0,0.1-0.9,1.5-4.2,1.5c-0.1,0-0.2-0.1-0.2-0.2s0.1-0.2,0.2-0.2c2.7,0,3.6-1.1,3.8-1.3v-3.4v-2.5H9.8   c-0.8,0-1.4-0.6-1.4-1.4v-6c0-0.8,0.6-1.4,1.4-1.4h80.4c0.8,0,1.4,0.6,1.4,1.4V79.2z M33.9,10.4c0.1-0.4,0.5-0.7,1-0.7h29.7   c0.4,0,0.8,0.3,1,0.7l0.5,1.3H33.5L33.9,10.4z M6.2,50.9h40.8L46.7,64H4.9L6.2,50.9z M51.1,47.6c0.2,0,0.5,0,0.7,0v2.9h-1.5v-2.9   C50.6,47.6,50.9,47.6,51.1,47.6z M51.8,50.9V64h-1.5V50.9H51.8z M51.8,64.4v3.7h-1.5v-3.7H51.8z M52,68.1v-3.7h1.5v3.7H52z M52,64   V50.9h1.5V64H52z M52,50.5v-2.9c0.5,0,1-0.1,1.5-0.1v3.1H52z M50.2,47.6v2.9h-1.5v-3.1C49.2,47.5,49.7,47.5,50.2,47.6z M50.2,50.9   V64h-1.5V50.9H50.2z M50.2,64.4v3.7h-1.5v-3.7H50.2z M48.5,68.1h-1.5l-0.1-3.7h1.6V68.1z M53.7,68.1v-3.7h1.6l-0.1,3.7H53.7z    M53.7,64V50.9H55L55.3,64H53.7z M53.7,50.5v-3.1c0.4-0.1,0.8-0.1,1.3-0.2v3.3H53.7z M51.1,47.2c-9.3,0-16.8-7.5-16.8-16.8   c0-9.3,7.5-16.8,16.8-16.8s16.8,7.5,16.8,16.8C67.9,39.7,60.4,47.2,51.1,47.2z M48.5,47.4v3.1h-1.3v-3.3   C47.7,47.3,48.1,47.3,48.5,47.4z M48.5,50.9V64h-1.6l0.3-13.1H48.5z M4.9,64.4h41.9l0.1,3.7H5.1L4.9,64.4z M94.9,68.1H55.4l0.1-3.7   h38.2c0.1,0,0.2-0.1,0.2-0.2c0-0.1-0.1-0.2-0.2-0.2H55.5l-0.3-13.1h34.3c0.1,0,0.2-0.1,0.2-0.2c0-0.1-0.1-0.2-0.2-0.2H55.2v-3.4   c7.5-1.8,13.2-8.6,13.2-16.7c0-9.5-7.7-17.2-17.2-17.2c-9.5,0-17.2,7.7-17.2,17.2c0,8.1,5.6,14.9,13.2,16.7v3.4H6.3l1-31.7h9.5   c0.1,0,0.2-0.1,0.2-0.2s-0.1-0.2-0.2-0.2H7.2l0-1.2c0-0.1,0-0.2,0-0.2h18.6c0.2,0,0.4-0.2,0.4-0.4s-0.2-0.4-0.4-0.4H7.4   c0.5-2.2,2.5-3.8,4.9-3.8H33c0,0,0,0,0,0h33.4c0,0,0,0,0,0h21.2c2.7,0,4.9,2.1,5,4.9l1,33.5c0,0,0,0,0,0l0.1,1.5H70.2   c-0.2,0-0.4,0.2-0.4,0.4S70,53,70.2,53H94l0.2,1.6H82.3c-0.2,0-0.3,0.1-0.3,0.3c0,0.2,0.1,0.3,0.3,0.3h11.9l0.9,9L94.9,68.1z"/><path class="st0" d="M29.6,25.5H12.9c-0.6,0-1,0.5-1,1v5.2c0,0.6,0.5,1,1,1h16.7c0.6,0,1-0.5,1-1v-5.2   C30.6,26,30.2,25.5,29.6,25.5z"/><path class="st0" d="M90.2,72.4H9.8c-0.5,0-0.8,0.4-0.8,0.8v6c0,0.5,0.4,0.8,0.8,0.8h80.4c0.5,0,0.8-0.4,0.8-0.8   v-6C91,72.7,90.6,72.4,90.2,72.4z"/><rect x="12.8" y="80.7" class="st0" width="74.3" height="2.3"/><path class="st0" d="M89.7,33.9C89.7,33.9,89.7,33.9,89.7,33.9c0.7-0.3,0.7-7.9,0.7-9.4s0-9.1-0.7-9.4c0,0,0,0,0,0   c0,0,0-0.1,0-0.1c-0.6-0.6-8.5-0.6-9.4-0.6c-0.9,0-8.7,0-9.4,0.6c0,0,0,0,0,0.1c0,0-0.1,0-0.1,0c-0.6,0.6-0.6,8.5-0.6,9.4   s0,8.7,0.6,9.4c0,0,0,0,0.1,0c0,0,0,0.1,0,0.1c0.6,0.6,8.5,0.6,9.4,0.6C81.2,34.6,89.1,34.6,89.7,33.9C89.7,34,89.7,34,89.7,33.9z    M89.5,33.9C89.5,33.9,89.5,33.9,89.5,33.9c-0.2,0.3-3.5,0.6-9.2,0.6c-5.8,0-9-0.3-9.2-0.6c0,0,0,0,0,0L71,33.8c0,0,0,0,0,0   c-0.3-0.2-0.6-3.5-0.6-9.2s0.3-9,0.6-9.2c0,0,0,0,0,0l0.1-0.1c0,0,0,0,0,0c0.2-0.3,3.5-0.6,9.2-0.6c5.7,0,9,0.3,9.2,0.6   c0,0,0,0,0,0l0.1,0.1c0,0,0,0,0,0c0.3,0.2,0.6,3.5,0.6,9.2s-0.3,9-0.6,9.2c0,0,0,0,0,0L89.5,33.9z"/></g><text x="0" y="115" fill="#000000" font-size="5px" font-weight="bold" font-family="'Helvetica Neue', Helvetica, Arial-Unicode, Arial, Sans-serif">Created by Kelig Le Luron</text><text x="0" y="120" fill="#000000" font-size="5px" font-weight="bold" font-family="'Helvetica Neue', Helvetica, Arial-Unicode, Arial, Sans-serif">from the Noun Project</text></svg>