<svg xmlns="http://www.w3.org/2000/svg" xmlns:xlink="http://www.w3.org/1999/xlink" width="400" zoomAndPan="magnify" viewBox="0 0 300 74.999997" height="100" preserveAspectRatio="xMidYMid meet" version="1.0"><defs><g/></defs><g fill="#000000" fill-opacity="1"><g transform="translate(14.734159, 60.868653)"><g><path d="M 2.890625 0 C 2.710938 0 2.5625 -0.0546875 2.4375 -0.171875 C 2.320312 -0.296875 2.265625 -0.445312 2.265625 -0.625 L 2.265625 -35.4375 C 2.265625 -35.613281 2.320312 -35.757812 2.4375 -35.875 C 2.5625 -36 2.710938 -36.0625 2.890625 -36.0625 L 8.90625 -36.0625 C 9.082031 -36.0625 9.226562 -36 9.34375 -35.875 C 9.46875 -35.757812 9.53125 -35.613281 9.53125 -35.4375 L 9.53125 -0.625 C 9.53125 -0.445312 9.46875 -0.296875 9.34375 -0.171875 C 9.226562 -0.0546875 9.082031 0 8.90625 0 Z M 2.890625 0 "/></g></g></g><g fill="#000000" fill-opacity="1"><g transform="translate(25.190701, 60.868653)"><g><path d="M 17 -35.4375 C 17 -35.613281 17.054688 -35.757812 17.171875 -35.875 C 17.296875 -36 17.445312 -36.0625 17.625 -36.0625 L 23.59375 -36.0625 C 23.769531 -36.0625 23.914062 -36 24.03125 -35.875 C 24.15625 -35.757812 24.21875 -35.613281 24.21875 -35.4375 L 24.21875 -0.625 C 24.21875 -0.445312 24.15625 -0.296875 24.03125 -0.171875 C 23.914062 -0.0546875 23.769531 0 23.59375 0 L 16.796875 0 C 16.453125 0 16.226562 -0.171875 16.125 -0.515625 L 9.734375 -20.453125 C 9.703125 -20.554688 9.640625 -20.597656 9.546875 -20.578125 C 9.460938 -20.566406 9.421875 -20.507812 9.421875 -20.40625 L 9.484375 -0.625 C 9.484375 -0.445312 9.421875 -0.296875 9.296875 -0.171875 C 9.179688 -0.0546875 9.035156 0 8.859375 0 L 2.890625 0 C 2.710938 0 2.5625 -0.0546875 2.4375 -0.171875 C 2.320312 -0.296875 2.265625 -0.445312 2.265625 -0.625 L 2.265625 -35.4375 C 2.265625 -35.613281 2.320312 -35.757812 2.4375 -35.875 C 2.5625 -36 2.710938 -36.0625 2.890625 -36.0625 L 9.640625 -36.0625 C 9.984375 -36.0625 10.203125 -35.890625 10.296875 -35.546875 L 16.75 -15.609375 C 16.78125 -15.503906 16.835938 -15.457031 16.921875 -15.46875 C 17.003906 -15.488281 17.046875 -15.550781 17.046875 -15.65625 Z M 17 -35.4375 "/></g></g></g><g fill="#000000" fill-opacity="1"><g transform="translate(50.276117, 60.868653)"><g><path d="M 11.546875 0.40625 C 9.546875 0.40625 7.789062 0.015625 6.28125 -0.765625 C 4.769531 -1.554688 3.601562 -2.664062 2.78125 -4.09375 C 1.957031 -5.519531 1.546875 -7.160156 1.546875 -9.015625 L 1.546875 -10.515625 C 1.546875 -10.679688 1.601562 -10.820312 1.71875 -10.9375 C 1.84375 -11.0625 1.988281 -11.125 2.15625 -11.125 L 8.09375 -11.125 C 8.257812 -11.125 8.398438 -11.0625 8.515625 -10.9375 C 8.640625 -10.820312 8.703125 -10.679688 8.703125 -10.515625 L 8.703125 -9.375 C 8.703125 -8.3125 8.976562 -7.453125 9.53125 -6.796875 C 10.082031 -6.148438 10.769531 -5.828125 11.59375 -5.828125 C 12.414062 -5.828125 13.097656 -6.132812 13.640625 -6.75 C 14.191406 -7.363281 14.46875 -8.171875 14.46875 -9.171875 C 14.46875 -10.203125 14.125 -11.085938 13.4375 -11.828125 C 12.757812 -12.566406 11.421875 -13.65625 9.421875 -15.09375 C 7.710938 -16.332031 6.320312 -17.429688 5.25 -18.390625 C 4.1875 -19.347656 3.273438 -20.53125 2.515625 -21.9375 C 1.765625 -23.351562 1.390625 -24.988281 1.390625 -26.84375 C 1.390625 -29.757812 2.300781 -32.09375 4.125 -33.84375 C 5.945312 -35.59375 8.347656 -36.46875 11.328125 -36.46875 C 14.347656 -36.46875 16.773438 -35.554688 18.609375 -33.734375 C 20.453125 -31.921875 21.375 -29.535156 21.375 -26.578125 L 21.375 -25.34375 C 21.375 -25.175781 21.3125 -25.03125 21.1875 -24.90625 C 21.070312 -24.789062 20.929688 -24.734375 20.765625 -24.734375 L 14.84375 -24.734375 C 14.664062 -24.734375 14.515625 -24.789062 14.390625 -24.90625 C 14.273438 -25.03125 14.21875 -25.175781 14.21875 -25.34375 L 14.21875 -26.734375 C 14.21875 -27.796875 13.953125 -28.644531 13.421875 -29.28125 C 12.890625 -29.914062 12.191406 -30.234375 11.328125 -30.234375 C 10.503906 -30.234375 9.832031 -29.929688 9.3125 -29.328125 C 8.800781 -28.734375 8.546875 -27.90625 8.546875 -26.84375 C 8.546875 -25.8125 8.875 -24.898438 9.53125 -24.109375 C 10.1875 -23.316406 11.472656 -22.21875 13.390625 -20.8125 C 15.523438 -19.226562 17.128906 -17.945312 18.203125 -16.96875 C 19.285156 -15.988281 20.128906 -14.90625 20.734375 -13.71875 C 21.335938 -12.539062 21.640625 -11.128906 21.640625 -9.484375 C 21.640625 -6.460938 20.710938 -4.054688 18.859375 -2.265625 C 17.003906 -0.484375 14.566406 0.40625 11.546875 0.40625 Z M 11.546875 0.40625 "/></g></g></g><g fill="#000000" fill-opacity="1"><g transform="translate(71.755824, 60.868653)"><g><path d="M 22.25 -36.0625 C 22.425781 -36.0625 22.570312 -36 22.6875 -35.875 C 22.8125 -35.757812 22.875 -35.613281 22.875 -35.4375 L 22.875 -30.453125 C 22.875 -30.273438 22.8125 -30.125 22.6875 -30 C 22.570312 -29.882812 22.425781 -29.828125 22.25 -29.828125 L 15.8125 -29.828125 C 15.644531 -29.828125 15.5625 -29.738281 15.5625 -29.5625 L 15.5625 -0.625 C 15.5625 -0.445312 15.5 -0.296875 15.375 -0.171875 C 15.257812 -0.0546875 15.113281 0 14.9375 0 L 8.90625 0 C 8.738281 0 8.59375 -0.0546875 8.46875 -0.171875 C 8.351562 -0.296875 8.296875 -0.445312 8.296875 -0.625 L 8.296875 -29.5625 C 8.296875 -29.738281 8.207031 -29.828125 8.03125 -29.828125 L 1.859375 -29.828125 C 1.679688 -29.828125 1.53125 -29.882812 1.40625 -30 C 1.289062 -30.125 1.234375 -30.273438 1.234375 -30.453125 L 1.234375 -35.4375 C 1.234375 -35.613281 1.289062 -35.757812 1.40625 -35.875 C 1.53125 -36 1.679688 -36.0625 1.859375 -36.0625 Z M 22.25 -36.0625 "/></g></g></g><g fill="#000000" fill-opacity="1"><g transform="translate(94.471774, 60.868653)"><g><path d="M 17.40625 0 C 17 0 16.78125 -0.1875 16.75 -0.5625 L 15.921875 -5.515625 C 15.921875 -5.679688 15.816406 -5.765625 15.609375 -5.765625 L 9.0625 -5.765625 C 8.851562 -5.765625 8.75 -5.679688 8.75 -5.515625 L 7.9375 -0.5625 C 7.894531 -0.1875 7.671875 0 7.265625 0 L 1.234375 0 C 0.785156 0 0.613281 -0.222656 0.71875 -0.671875 L 8.296875 -35.5 C 8.359375 -35.875 8.582031 -36.0625 8.96875 -36.0625 L 15.921875 -36.0625 C 16.296875 -36.0625 16.519531 -35.875 16.59375 -35.5 L 24.109375 -0.671875 L 24.15625 -0.46875 C 24.15625 -0.15625 23.96875 0 23.59375 0 Z M 9.78125 -11.640625 C 9.78125 -11.472656 9.851562 -11.390625 10 -11.390625 L 14.625 -11.390625 C 14.800781 -11.390625 14.875 -11.472656 14.84375 -11.640625 L 12.421875 -25.703125 C 12.378906 -25.804688 12.320312 -25.859375 12.25 -25.859375 C 12.1875 -25.859375 12.140625 -25.804688 12.109375 -25.703125 Z M 9.78125 -11.640625 "/></g></g></g><g fill="#000000" fill-opacity="1"><g transform="translate(117.908858, 60.868653)"><g><path d="M 17 -35.4375 C 17 -35.613281 17.054688 -35.757812 17.171875 -35.875 C 17.296875 -36 17.445312 -36.0625 17.625 -36.0625 L 23.59375 -36.0625 C 23.769531 -36.0625 23.914062 -36 24.03125 -35.875 C 24.15625 -35.757812 24.21875 -35.613281 24.21875 -35.4375 L 24.21875 -0.625 C 24.21875 -0.445312 24.15625 -0.296875 24.03125 -0.171875 C 23.914062 -0.0546875 23.769531 0 23.59375 0 L 16.796875 0 C 16.453125 0 16.226562 -0.171875 16.125 -0.515625 L 9.734375 -20.453125 C 9.703125 -20.554688 9.640625 -20.597656 9.546875 -20.578125 C 9.460938 -20.566406 9.421875 -20.507812 9.421875 -20.40625 L 9.484375 -0.625 C 9.484375 -0.445312 9.421875 -0.296875 9.296875 -0.171875 C 9.179688 -0.0546875 9.035156 0 8.859375 0 L 2.890625 0 C 2.710938 0 2.5625 -0.0546875 2.4375 -0.171875 C 2.320312 -0.296875 2.265625 -0.445312 2.265625 -0.625 L 2.265625 -35.4375 C 2.265625 -35.613281 2.320312 -35.757812 2.4375 -35.875 C 2.5625 -36 2.710938 -36.0625 2.890625 -36.0625 L 9.640625 -36.0625 C 9.984375 -36.0625 10.203125 -35.890625 10.296875 -35.546875 L 16.75 -15.609375 C 16.78125 -15.503906 16.835938 -15.457031 16.921875 -15.46875 C 17.003906 -15.488281 17.046875 -15.550781 17.046875 -15.65625 Z M 17 -35.4375 "/></g></g></g><g fill="#000000" fill-opacity="1"><g transform="translate(142.994281, 60.868653)"><g><path d="M 22.25 -36.0625 C 22.425781 -36.0625 22.570312 -36 22.6875 -35.875 C 22.8125 -35.757812 22.875 -35.613281 22.875 -35.4375 L 22.875 -30.453125 C 22.875 -30.273438 22.8125 -30.125 22.6875 -30 C 22.570312 -29.882812 22.425781 -29.828125 22.25 -29.828125 L 15.8125 -29.828125 C 15.644531 -29.828125 15.5625 -29.738281 15.5625 -29.5625 L 15.5625 -0.625 C 15.5625 -0.445312 15.5 -0.296875 15.375 -0.171875 C 15.257812 -0.0546875 15.113281 0 14.9375 0 L 8.90625 0 C 8.738281 0 8.59375 -0.0546875 8.46875 -0.171875 C 8.351562 -0.296875 8.296875 -0.445312 8.296875 -0.625 L 8.296875 -29.5625 C 8.296875 -29.738281 8.207031 -29.828125 8.03125 -29.828125 L 1.859375 -29.828125 C 1.679688 -29.828125 1.53125 -29.882812 1.40625 -30 C 1.289062 -30.125 1.234375 -30.273438 1.234375 -30.453125 L 1.234375 -35.4375 C 1.234375 -35.613281 1.289062 -35.757812 1.40625 -35.875 C 1.53125 -36 1.679688 -36.0625 1.859375 -36.0625 Z M 22.25 -36.0625 "/></g></g></g><g fill="#000000" fill-opacity="1"><g transform="translate(165.710234, 60.868653)"><g/></g></g><g fill="#000000" fill-opacity="1"><g transform="translate(174.621469, 60.868653)"><g><path d="M 18.75 -35.65625 C 18.882812 -35.925781 19.144531 -36.0625 19.53125 -36.0625 L 25.5 -36.0625 C 25.664062 -36.0625 25.8125 -36 25.9375 -35.875 C 26.0625 -35.757812 26.125 -35.613281 26.125 -35.4375 L 26.125 -0.625 C 26.125 -0.445312 26.0625 -0.296875 25.9375 -0.171875 C 25.8125 -0.0546875 25.664062 0 25.5 0 L 19.46875 0 C 19.300781 0 19.15625 -0.0546875 19.03125 -0.171875 C 18.914062 -0.296875 18.859375 -0.445312 18.859375 -0.625 L 18.859375 -23.75 C 18.859375 -23.882812 18.820312 -23.953125 18.75 -23.953125 C 18.6875 -23.953125 18.617188 -23.898438 18.546875 -23.796875 L 14.53125 -16.6875 C 14.351562 -16.414062 14.210938 -16.28125 14.109375 -16.28125 C 14.003906 -16.28125 13.867188 -16.414062 13.703125 -16.6875 L 9.6875 -23.796875 C 9.613281 -23.898438 9.539062 -23.953125 9.46875 -23.953125 C 9.40625 -23.953125 9.375 -23.882812 9.375 -23.75 L 9.375 -0.625 C 9.375 -0.445312 9.3125 -0.296875 9.1875 -0.171875 C 9.070312 -0.0546875 8.925781 0 8.75 0 L 2.734375 0 C 2.554688 0 2.40625 -0.0546875 2.28125 -0.171875 C 2.164062 -0.296875 2.109375 -0.445312 2.109375 -0.625 L 2.109375 -35.4375 C 2.109375 -35.613281 2.164062 -35.757812 2.28125 -35.875 C 2.40625 -36 2.554688 -36.0625 2.734375 -36.0625 L 8.65625 -36.0625 C 9 -36.0625 9.253906 -35.925781 9.421875 -35.65625 L 14.015625 -27.453125 C 14.117188 -27.316406 14.222656 -27.316406 14.328125 -27.453125 Z M 18.75 -35.65625 "/></g></g></g><g fill="#000000" fill-opacity="1"><g transform="translate(201.458232, 60.868653)"><g><path d="M 17.40625 0 C 17 0 16.78125 -0.1875 16.75 -0.5625 L 15.921875 -5.515625 C 15.921875 -5.679688 15.816406 -5.765625 15.609375 -5.765625 L 9.0625 -5.765625 C 8.851562 -5.765625 8.75 -5.679688 8.75 -5.515625 L 7.9375 -0.5625 C 7.894531 -0.1875 7.671875 0 7.265625 0 L 1.234375 0 C 0.785156 0 0.613281 -0.222656 0.71875 -0.671875 L 8.296875 -35.5 C 8.359375 -35.875 8.582031 -36.0625 8.96875 -36.0625 L 15.921875 -36.0625 C 16.296875 -36.0625 16.519531 -35.875 16.59375 -35.5 L 24.109375 -0.671875 L 24.15625 -0.46875 C 24.15625 -0.15625 23.96875 0 23.59375 0 Z M 9.78125 -11.640625 C 9.78125 -11.472656 9.851562 -11.390625 10 -11.390625 L 14.625 -11.390625 C 14.800781 -11.390625 14.875 -11.472656 14.84375 -11.640625 L 12.421875 -25.703125 C 12.378906 -25.804688 12.320312 -25.859375 12.25 -25.859375 C 12.1875 -25.859375 12.140625 -25.804688 12.109375 -25.703125 Z M 9.78125 -11.640625 "/></g></g></g><g fill="#000000" fill-opacity="1"><g transform="translate(224.895316, 60.868653)"><g><path d="M 17 -35.4375 C 17 -35.613281 17.054688 -35.757812 17.171875 -35.875 C 17.296875 -36 17.445312 -36.0625 17.625 -36.0625 L 23.59375 -36.0625 C 23.769531 -36.0625 23.914062 -36 24.03125 -35.875 C 24.15625 -35.757812 24.21875 -35.613281 24.21875 -35.4375 L 24.21875 -0.625 C 24.21875 -0.445312 24.15625 -0.296875 24.03125 -0.171875 C 23.914062 -0.0546875 23.769531 0 23.59375 0 L 16.796875 0 C 16.453125 0 16.226562 -0.171875 16.125 -0.515625 L 9.734375 -20.453125 C 9.703125 -20.554688 9.640625 -20.597656 9.546875 -20.578125 C 9.460938 -20.566406 9.421875 -20.507812 9.421875 -20.40625 L 9.484375 -0.625 C 9.484375 -0.445312 9.421875 -0.296875 9.296875 -0.171875 C 9.179688 -0.0546875 9.035156 0 8.859375 0 L 2.890625 0 C 2.710938 0 2.5625 -0.0546875 2.4375 -0.171875 C 2.320312 -0.296875 2.265625 -0.445312 2.265625 -0.625 L 2.265625 -35.4375 C 2.265625 -35.613281 2.320312 -35.757812 2.4375 -35.875 C 2.5625 -36 2.710938 -36.0625 2.890625 -36.0625 L 9.640625 -36.0625 C 9.984375 -36.0625 10.203125 -35.890625 10.296875 -35.546875 L 16.75 -15.609375 C 16.78125 -15.503906 16.835938 -15.457031 16.921875 -15.46875 C 17.003906 -15.488281 17.046875 -15.550781 17.046875 -15.65625 Z M 17 -35.4375 "/></g></g></g><g fill="#000000" fill-opacity="1"><g transform="translate(249.980739, 60.868653)"><g><path d="M 2.890625 0 C 2.710938 0 2.5625 -0.0546875 2.4375 -0.171875 C 2.320312 -0.296875 2.265625 -0.445312 2.265625 -0.625 L 2.265625 -35.4375 C 2.265625 -35.613281 2.320312 -35.757812 2.4375 -35.875 C 2.5625 -36 2.710938 -36.0625 2.890625 -36.0625 L 8.90625 -36.0625 C 9.082031 -36.0625 9.226562 -36 9.34375 -35.875 C 9.46875 -35.757812 9.53125 -35.613281 9.53125 -35.4375 L 9.53125 -0.625 C 9.53125 -0.445312 9.46875 -0.296875 9.34375 -0.171875 C 9.226562 -0.0546875 9.082031 0 8.90625 0 Z M 2.890625 0 "/></g></g></g><g fill="#000000" fill-opacity="1"><g transform="translate(260.437266, 60.868653)"><g><path d="M 17.40625 0 C 17 0 16.78125 -0.1875 16.75 -0.5625 L 15.921875 -5.515625 C 15.921875 -5.679688 15.816406 -5.765625 15.609375 -5.765625 L 9.0625 -5.765625 C 8.851562 -5.765625 8.75 -5.679688 8.75 -5.515625 L 7.9375 -0.5625 C 7.894531 -0.1875 7.671875 0 7.265625 0 L 1.234375 0 C 0.785156 0 0.613281 -0.222656 0.71875 -0.671875 L 8.296875 -35.5 C 8.359375 -35.875 8.582031 -36.0625 8.96875 -36.0625 L 15.921875 -36.0625 C 16.296875 -36.0625 16.519531 -35.875 16.59375 -35.5 L 24.109375 -0.671875 L 24.15625 -0.46875 C 24.15625 -0.15625 23.96875 0 23.59375 0 Z M 9.78125 -11.640625 C 9.78125 -11.472656 9.851562 -11.390625 10 -11.390625 L 14.625 -11.390625 C 14.800781 -11.390625 14.875 -11.472656 14.84375 -11.640625 L 12.421875 -25.703125 C 12.378906 -25.804688 12.320312 -25.859375 12.25 -25.859375 C 12.1875 -25.859375 12.140625 -25.804688 12.109375 -25.703125 Z M 9.78125 -11.640625 "/></g></g></g><path stroke-linecap="butt" transform="matrix(0.0581287, 0, 0, 0.0581287, -0.695382, 15.642689)" fill="none" stroke-linejoin="miter" d="M 314.967614 680.969328 C 312.078013 680.969328 309.524413 679.961328 307.374013 677.945328 C 305.358013 675.794928 304.350013 673.308528 304.350013 670.418928 L 304.350013 71.330901 C 304.350013 68.306901 305.358013 65.820501 307.374013 63.804501 C 309.524413 61.721301 312.078013 60.713301 314.967614 60.713301 L 418.791618 60.713301 C 421.681218 60.713301 424.100418 61.721301 426.116419 63.804501 C 428.334019 65.820501 429.409219 68.306901 429.409219 71.330901 L 429.409219 670.418928 C 429.409219 673.308528 428.334019 675.794928 426.116419 677.945328 C 424.100418 679.961328 421.681218 680.969328 418.791618 680.969328 Z M 737.790032 71.330901 C 737.790032 68.306901 738.798032 65.820501 740.814033 63.804501 C 742.830033 61.721301 745.383633 60.713301 748.407633 60.713301 L 851.156437 60.713301 C 854.046038 60.713301 856.465238 61.721301 858.481238 63.804501 C 860.698838 65.820501 861.774038 68.306901 861.774038 71.330901 L 861.774038 670.418928 C 861.774038 673.308528 860.698838 675.794928 858.481238 677.945328 C 856.465238 679.961328 854.046038 680.969328 851.156437 680.969328 L 734.094032 680.969328 C 728.180432 680.969328 724.350032 678.012528 722.670032 672.098928 L 612.730827 329.244513 C 612.193227 327.497313 611.185227 326.758113 609.706827 327.094113 C 608.295627 327.362913 607.556427 328.370913 607.556427 330.118113 L 608.430027 670.418928 C 608.430027 673.308528 607.354827 675.794928 605.137227 677.945328 C 603.121226 679.961328 600.702026 680.969328 597.812426 680.969328 L 494.862022 680.969328 C 491.972421 680.969328 489.418821 679.961328 487.268421 677.945328 C 485.252421 675.794928 484.244421 673.308528 484.244421 670.418928 L 484.244421 71.330901 C 484.244421 68.306901 485.252421 65.820501 487.268421 63.804501 C 489.418821 61.721301 491.972421 60.713301 494.862022 60.713301 L 610.983627 60.713301 C 616.897227 60.713301 620.727627 63.670101 622.474827 69.583701 L 733.220432 412.505316 C 733.825232 414.252516 734.833232 414.991717 736.244432 414.655716 C 737.857232 414.386916 738.663632 413.378916 738.663632 411.631716 Z M 1075.470047 688.159729 C 1041.130846 688.159729 1010.890845 681.372528 984.817243 667.798128 C 958.810842 654.089327 938.785241 635.004526 924.673241 610.476525 C 910.49404 585.948524 903.43804 557.724523 903.43804 525.871721 L 903.43804 500.13412 C 903.43804 497.24452 904.44604 494.82532 906.46204 492.80932 C 908.61244 490.59172 911.16604 489.51652 914.05564 489.51652 L 1015.930845 489.51652 C 1018.954845 489.51652 1021.508445 490.59172 1023.524445 492.80932 C 1025.540445 494.82532 1026.548445 497.24452 1026.548445 500.13412 L 1026.548445 519.823721 C 1026.548445 538.169322 1031.252445 552.953323 1040.593246 564.175723 C 1050.135646 575.263724 1062.030047 580.841324 1076.276447 580.841324 C 1090.455648 580.841324 1102.215649 575.599724 1111.556449 565.049323 C 1121.098849 554.364523 1125.87005 540.454122 1125.87005 523.318121 C 1125.87005 505.577321 1119.956449 490.32292 1108.129249 477.622119 C 1096.302048 464.921319 1073.252447 446.172518 1039.114846 421.375717 C 1009.546844 400.073316 985.556443 381.122915 967.278043 364.726114 C 948.932442 348.127714 933.274841 327.698913 920.305241 303.506912 C 907.33564 279.24771 900.88444 251.225309 900.88444 219.305308 C 900.88444 169.106906 916.47484 128.988504 947.790042 98.815702 C 979.105243 68.710101 1020.433245 53.5901 1071.774047 53.5901 C 1123.85405 53.5901 1165.652451 69.247701 1197.236453 100.562903 C 1228.820454 131.878104 1244.612455 172.870106 1244.612455 223.673308 L 1244.612455 245.042909 C 1244.612455 247.932509 1243.537255 250.486109 1241.386855 252.636509 C 1239.370855 254.652509 1236.884455 255.660509 1233.994854 255.660509 L 1132.11965 255.660509 C 1129.09565 255.660509 1126.47485 254.652509 1124.32445 252.636509 C 1122.30845 250.486109 1121.300449 247.932509 1121.300449 245.042909 L 1121.300449 221.052508 C 1121.300449 202.706907 1116.798049 188.191706 1107.658849 177.372506 C 1098.586848 166.418905 1086.625248 160.908505 1071.774047 160.908505 C 1057.662047 160.908505 1046.103646 166.082905 1037.166046 176.498906 C 1028.362845 186.713306 1023.927645 201.026907 1023.927645 219.305308 C 1023.927645 237.046109 1029.572445 252.703709 1040.862046 266.27811 C 1052.084446 279.852511 1074.193247 298.735711 1107.255649 322.927712 C 1143.87965 350.210914 1171.498852 372.252515 1190.113253 389.186915 C 1208.727653 405.852516 1223.108454 424.466917 1233.390054 444.962918 C 1243.738855 465.324519 1248.980455 489.58372 1248.980455 517.874921 C 1248.980455 569.954923 1232.986854 611.350125 1201.134053 642.060527 C 1169.281252 672.770928 1127.34845 688.159729 1075.470047 688.159729 Z M 1629.063672 60.713301 C 1632.087672 60.713301 1634.641272 61.721301 1636.657272 63.804501 C 1638.807672 65.820501 1639.882873 68.306901 1639.882873 71.330901 L 1639.882873 157.212505 C 1639.882873 160.236505 1638.807672 162.790105 1636.657272 164.806105 C 1634.641272 166.822105 1632.087672 167.830106 1629.063672 167.830106 L 1518.318067 167.830106 C 1515.428467 167.830106 1513.950067 169.375706 1513.950067 172.399706 L 1513.950067 670.418928 C 1513.950067 673.308528 1512.874867 675.794928 1510.724467 677.945328 C 1508.708467 679.961328 1506.289267 680.969328 1503.399666 680.969328 L 1399.777262 680.969328 C 1396.686062 680.969328 1394.132462 679.961328 1391.982062 677.945328 C 1389.966061 675.794928 1388.958061 673.308528 1388.958061 670.418928 L 1388.958061 172.399706 C 1388.958061 169.375706 1387.479661 167.830106 1384.590061 167.830106 L 1278.145256 167.830106 C 1275.255656 167.830106 1272.769256 166.822105 1270.618856 164.806105 C 1268.602856 162.790105 1267.594856 160.236505 1267.594856 157.212505 L 1267.594856 71.330901 C 1267.594856 68.306901 1268.602856 65.820501 1270.618856 63.804501 C 1272.769256 61.721301 1275.255656 60.713301 1278.145256 60.713301 Z M 1936.570886 680.969328 C 1929.514885 680.969328 1925.684485 677.743728 1925.079685 671.292528 L 1911.034885 586.217324 C 1911.034885 583.193324 1909.220485 581.714924 1905.658884 581.714924 L 1793.098879 581.714924 C 1789.537279 581.714924 1787.722879 583.193324 1787.722879 586.217324 L 1773.678078 671.292528 C 1773.073278 677.743728 1769.242878 680.969328 1762.186878 680.969328 L 1658.362873 680.969328 C 1650.702073 680.969328 1647.745273 677.206128 1649.492473 669.545328 L 1779.726079 70.457301 C 1781.002879 64.006101 1784.900479 60.713301 1791.418879 60.713301 L 1911.034885 60.713301 C 1917.553285 60.713301 1921.383685 64.006101 1922.526085 70.457301 L 2051.886091 669.545328 L 2052.759691 672.972528 C 2052.759691 678.348528 2049.466891 680.969328 2043.01569 680.969328 Z M 1805.46368 480.646119 C 1805.46368 483.67012 1806.67328 485.21572 1809.15968 485.21572 L 1888.724484 485.21572 C 1891.815684 485.21572 1893.025284 483.67012 1892.420484 480.646119 L 1850.689282 238.793309 C 1850.084482 237.046109 1849.210882 236.172509 1848.068482 236.172509 C 1846.926082 236.172509 1846.052482 237.046109 1845.514882 238.793309 Z M 2332.849303 71.330901 C 2332.849303 68.306901 2333.857303 65.820501 2335.873303 63.804501 C 2337.889304 61.721301 2340.375704 60.713301 2343.466904 60.713301 L 2446.215708 60.713301 C 2449.105309 60.713301 2451.524509 61.721301 2453.540509 63.804501 C 2455.690909 65.820501 2456.833309 68.306901 2456.833309 71.330901 L 2456.833309 670.418928 C 2456.833309 673.308528 2455.690909 675.794928 2453.540509 677.945328 C 2451.524509 679.961328 2449.105309 680.969328 2446.215708 680.969328 L 2329.153303 680.969328 C 2323.239703 680.969328 2319.409303 678.012528 2317.662103 672.098928 L 2207.790098 329.244513 C 2207.185298 327.497313 2206.177298 326.758113 2204.766098 327.094113 C 2203.287698 327.362913 2202.615698 328.370913 2202.615698 330.118113 L 2203.489298 670.418928 C 2203.489298 673.308528 2202.414098 675.794928 2200.196497 677.945328 C 2198.180497 679.961328 2195.761297 680.969328 2192.871697 680.969328 L 2089.854093 680.969328 C 2087.031692 680.969328 2084.478092 679.961328 2082.327692 677.945328 C 2080.311692 675.794928 2079.303692 673.308528 2079.303692 670.418928 L 2079.303692 71.330901 C 2079.303692 68.306901 2080.311692 65.820501 2082.327692 63.804501 C 2084.478092 61.721301 2087.031692 60.713301 2089.854093 60.713301 L 2206.042898 60.713301 C 2211.956498 60.713301 2215.786898 63.670101 2217.534098 69.583701 L 2328.279703 412.505316 C 2328.884503 414.252516 2329.892503 414.991717 2331.303703 414.655716 C 2332.916503 414.386916 2333.722903 413.378916 2333.722903 411.631716 Z M 2854.590127 60.713301 C 2857.614127 60.713301 2860.167727 61.721301 2862.183727 63.804501 C 2864.334127 65.820501 2865.409327 68.306901 2865.409327 71.330901 L 2865.409327 157.212505 C 2865.409327 160.236505 2864.334127 162.790105 2862.183727 164.806105 C 2860.167727 166.822105 2857.614127 167.830106 2854.590127 167.830106 L 2743.844522 167.830106 C 2740.954922 167.830106 2739.476521 169.375706 2739.476521 172.399706 L 2739.476521 670.418928 C 2739.476521 673.308528 2738.401321 675.794928 2736.250921 677.945328 C 2734.234921 679.961328 2731.815721 680.969328 2728.926121 680.969328 L 2625.303716 680.969328 C 2622.279716 680.969328 2619.658916 679.961328 2617.508516 677.945328 C 2615.492516 675.794928 2614.484516 673.308528 2614.484516 670.418928 L 2614.484516 172.399706 C 2614.484516 169.375706 2613.006116 167.830106 2610.116516 167.830106 L 2503.671711 167.830106 C 2500.782111 167.830106 2498.295711 166.822105 2496.145311 164.806105 C 2494.129311 162.790105 2493.12131 160.236505 2493.12131 157.212505 L 2493.12131 71.330901 C 2493.12131 68.306901 2494.129311 65.820501 2496.145311 63.804501 C 2498.295711 61.721301 2500.782111 60.713301 2503.671711 60.713301 Z M 2854.590127 60.713301 " stroke="#000000" stroke-width="27.691906" stroke-opacity="1" stroke-miterlimit="4"/><path stroke-linecap="butt" transform="matrix(0.0581287, 0, 0, 0.0581287, -0.695382, 15.642689)" fill="none" stroke-linejoin="miter" d="M 3338.564548 67.903701 C 3340.849348 63.132501 3345.284548 60.713301 3351.735749 60.713301 L 3454.753353 60.713301 C 3457.642953 60.713301 3460.062153 61.721301 3462.078154 63.804501 C 3464.228554 65.820501 3465.303754 68.306901 3465.303754 71.330901 L 3465.303754 670.418928 C 3465.303754 673.308528 3464.228554 675.794928 3462.078154 677.945328 C 3460.062153 679.961328 3457.642953 680.969328 3454.753353 680.969328 L 3350.862149 680.969328 C 3347.972549 680.969328 3345.486148 679.961328 3343.335748 677.945328 C 3341.319748 675.794928 3340.311748 673.308528 3340.311748 670.418928 L 3340.311748 272.52771 C 3340.311748 270.10851 3339.706948 268.89891 3338.564548 268.89891 C 3337.422148 268.89891 3336.212548 269.77251 3335.070148 271.65411 L 3265.854145 393.890916 C 3262.964545 398.662116 3260.612545 401.081316 3258.730945 401.081316 C 3256.983744 401.081316 3254.698944 398.662116 3251.809344 393.890916 L 3182.593341 271.65411 C 3181.383741 269.77251 3180.174141 268.89891 3178.897341 268.89891 C 3177.754941 268.89891 3177.150141 270.10851 3177.150141 272.52771 L 3177.150141 670.418928 C 3177.150141 673.308528 3176.142141 675.794928 3174.126141 677.945328 C 3172.110141 679.961328 3169.556541 680.969328 3166.53254 680.969328 L 3062.910136 680.969328 C 3060.020536 680.969328 3057.534136 679.961328 3055.383735 677.945328 C 3053.367735 675.794928 3052.359735 673.308528 3052.359735 670.418928 L 3052.359735 71.330901 C 3052.359735 68.306901 3053.367735 65.820501 3055.383735 63.804501 C 3057.534136 61.721301 3060.020536 60.713301 3062.910136 60.713301 L 3164.85254 60.713301 C 3170.766141 60.713301 3175.201341 63.132501 3178.225341 67.903701 L 3256.983744 208.754907 C 3258.730945 211.039707 3260.545345 211.039707 3262.426945 208.754907 Z M 3338.564548 67.903701 " stroke="#000000" stroke-width="27.691906" stroke-opacity="1" stroke-miterlimit="4"/><path stroke-linecap="butt" transform="matrix(0.0581287, 0, 0, 0.0581287, -0.695382, 15.642689)" fill="none" stroke-linejoin="miter" d="M 3777.111768 680.969328 C 3770.055767 680.969328 3766.225367 677.743728 3765.620567 671.292528 L 3751.575766 586.217324 C 3751.575766 583.193324 3749.761366 581.714924 3746.132566 581.714924 L 3633.639761 581.714924 C 3630.078161 581.714924 3628.263761 583.193324 3628.263761 586.217324 L 3614.15176 671.292528 C 3613.61416 677.743728 3609.78376 680.969328 3602.72776 680.969328 L 3498.903755 680.969328 C 3491.242955 680.969328 3488.286155 677.206128 3490.033355 669.545328 L 3620.266961 70.457301 C 3621.543761 64.006101 3625.441361 60.713301 3631.892561 60.713301 L 3751.575766 60.713301 C 3758.026967 60.713301 3761.857367 64.006101 3762.999767 70.457301 L 3892.426973 669.545328 L 3893.233373 672.972528 C 3893.233373 678.348528 3890.007773 680.969328 3883.556572 680.969328 Z M 3646.004562 480.646119 C 3646.004562 483.67012 3647.214162 485.21572 3649.633362 485.21572 L 3729.265365 485.21572 C 3732.289366 485.21572 3733.566166 483.67012 3732.961366 480.646119 L 3691.230164 238.793309 C 3690.625364 237.046109 3689.751764 236.172509 3688.609364 236.172509 C 3687.466964 236.172509 3686.593364 237.046109 3685.988564 238.793309 Z M 3646.004562 480.646119 " stroke="#000000" stroke-width="27.691906" stroke-opacity="1" stroke-miterlimit="4"/><path stroke-linecap="butt" transform="matrix(0.0581287, 0, 0, 0.0581287, -0.695382, 15.642689)" fill="none" stroke-linejoin="miter" d="M 4173.390185 71.330901 C 4173.390185 68.306901 4174.398185 65.820501 4176.414185 63.804501 C 4178.430185 61.721301 4180.916586 60.713301 4183.940586 60.713301 L 4286.75659 60.713301 C 4289.64619 60.713301 4292.06539 61.721301 4294.081391 63.804501 C 4296.231791 65.820501 4297.306991 68.306901 4297.306991 71.330901 L 4297.306991 670.418928 C 4297.306991 673.308528 4296.231791 675.794928 4294.081391 677.945328 C 4292.06539 679.961328 4289.64619 680.969328 4286.75659 680.969328 L 4169.694185 680.969328 C 4163.780585 680.969328 4159.950185 678.012528 4158.202985 672.098928 L 4048.33098 329.244513 C 4047.72618 327.497313 4046.71818 326.758113 4045.30698 327.094113 C 4043.828579 327.362913 4043.156579 328.370913 4043.156579 330.118113 L 4044.030179 670.418928 C 4044.030179 673.308528 4042.887779 675.794928 4040.737379 677.945328 C 4038.721379 679.961328 4036.302179 680.969328 4033.412579 680.969328 L 3930.394974 680.969328 C 3927.505374 680.969328 3925.018974 679.961328 3922.868574 677.945328 C 3920.852574 675.794928 3919.844574 673.308528 3919.844574 670.418928 L 3919.844574 71.330901 C 3919.844574 68.306901 3920.852574 65.820501 3922.868574 63.804501 C 3925.018974 61.721301 3927.505374 60.713301 3930.394974 60.713301 L 4046.58378 60.713301 C 4052.49738 60.713301 4056.32778 63.670101 4058.07498 69.583701 L 4168.820585 412.505316 C 4169.425385 414.252516 4170.433385 414.991717 4171.844585 414.655716 C 4173.457385 414.386916 4174.263785 413.378916 4174.263785 411.631716 Z M 4173.390185 71.330901 " stroke="#000000" stroke-width="27.691906" stroke-opacity="1" stroke-miterlimit="4"/><path stroke-linecap="butt" transform="matrix(0.0581287, 0, 0, 0.0581287, -0.695382, 15.642689)" fill="none" stroke-linejoin="miter" d="M 4361.953394 680.969328 C 4359.063793 680.969328 4356.577393 679.961328 4354.426993 677.945328 C 4352.410993 675.794928 4351.402993 673.308528 4351.402993 670.418928 L 4351.402993 71.330901 C 4351.402993 68.306901 4352.410993 65.820501 4354.426993 63.804501 C 4356.577393 61.721301 4359.063793 60.713301 4361.953394 60.713301 L 4465.844598 60.713301 C 4468.734198 60.713301 4471.153398 61.721301 4473.169399 63.804501 C 4475.319799 65.820501 4476.394999 68.306901 4476.394999 71.330901 L 4476.394999 670.418928 C 4476.394999 673.308528 4475.319799 675.794928 4473.169399 677.945328 C 4471.153398 679.961328 4468.734198 680.969328 4465.844598 680.969328 Z M 4361.953394 680.969328 " stroke="#000000" stroke-width="27.691906" stroke-opacity="1" stroke-miterlimit="4"/><path stroke-linecap="butt" transform="matrix(0.0581287, 0, 0, 0.0581287, -0.695382, 15.642689)" fill="none" stroke-linejoin="miter" d="M 4791.764613 680.969328 C 4784.708612 680.969328 4780.878212 677.743728 4780.273412 671.292528 L 4766.228612 586.217324 C 4766.228612 583.193324 4764.414211 581.714924 4760.785411 581.714924 L 4648.292606 581.714924 C 4644.731006 581.714924 4642.916606 583.193324 4642.916606 586.217324 L 4628.871805 671.292528 C 4628.267005 677.743728 4624.436605 680.969328 4617.380605 680.969328 L 4513.5566 680.969328 C 4505.8958 680.969328 4502.939 677.206128 4504.6862 669.545328 L 4634.919806 70.457301 C 4636.196606 64.006101 4640.094206 60.713301 4646.612606 60.713301 L 4766.228612 60.713301 C 4772.679812 60.713301 4776.510212 64.006101 4777.652612 70.457301 L 4907.079818 669.545328 L 4907.953418 672.972528 C 4907.953418 678.348528 4904.660618 680.969328 4898.209417 680.969328 Z M 4660.657407 480.646119 C 4660.657407 483.67012 4661.867007 485.21572 4664.353407 485.21572 L 4743.918211 485.21572 C 4746.942211 485.21572 4748.219011 483.67012 4747.614211 480.646119 L 4705.883009 238.793309 C 4705.278209 237.046109 4704.404609 236.172509 4703.262209 236.172509 C 4702.119809 236.172509 4701.246209 237.046109 4700.641409 238.793309 Z M 4660.657407 480.646119 " stroke="#000000" stroke-width="27.691906" stroke-opacity="1" stroke-miterlimit="4"/><g fill="#ffffff" fill-opacity="1"><g transform="translate(14.732343, 55.228345)"><g><path d="M 2.890625 0 C 2.710938 0 2.5625 -0.0546875 2.4375 -0.171875 C 2.320312 -0.296875 2.265625 -0.445312 2.265625 -0.625 L 2.265625 -35.4375 C 2.265625 -35.613281 2.320312 -35.757812 2.4375 -35.875 C 2.5625 -36 2.710938 -36.0625 2.890625 -36.0625 L 8.90625 -36.0625 C 9.082031 -36.0625 9.226562 -36 9.34375 -35.875 C 9.46875 -35.757812 9.53125 -35.613281 9.53125 -35.4375 L 9.53125 -0.625 C 9.53125 -0.445312 9.46875 -0.296875 9.34375 -0.171875 C 9.226562 -0.0546875 9.082031 0 8.90625 0 Z M 2.890625 0 "/></g></g></g><g fill="#ffffff" fill-opacity="1"><g transform="translate(25.188885, 55.228345)"><g><path d="M 17 -35.4375 C 17 -35.613281 17.054688 -35.757812 17.171875 -35.875 C 17.296875 -36 17.445312 -36.0625 17.625 -36.0625 L 23.59375 -36.0625 C 23.769531 -36.0625 23.914062 -36 24.03125 -35.875 C 24.15625 -35.757812 24.21875 -35.613281 24.21875 -35.4375 L 24.21875 -0.625 C 24.21875 -0.445312 24.15625 -0.296875 24.03125 -0.171875 C 23.914062 -0.0546875 23.769531 0 23.59375 0 L 16.796875 0 C 16.453125 0 16.226562 -0.171875 16.125 -0.515625 L 9.734375 -20.453125 C 9.703125 -20.554688 9.640625 -20.597656 9.546875 -20.578125 C 9.460938 -20.566406 9.421875 -20.507812 9.421875 -20.40625 L 9.484375 -0.625 C 9.484375 -0.445312 9.421875 -0.296875 9.296875 -0.171875 C 9.179688 -0.0546875 9.035156 0 8.859375 0 L 2.890625 0 C 2.710938 0 2.5625 -0.0546875 2.4375 -0.171875 C 2.320312 -0.296875 2.265625 -0.445312 2.265625 -0.625 L 2.265625 -35.4375 C 2.265625 -35.613281 2.320312 -35.757812 2.4375 -35.875 C 2.5625 -36 2.710938 -36.0625 2.890625 -36.0625 L 9.640625 -36.0625 C 9.984375 -36.0625 10.203125 -35.890625 10.296875 -35.546875 L 16.75 -15.609375 C 16.78125 -15.503906 16.835938 -15.457031 16.921875 -15.46875 C 17.003906 -15.488281 17.046875 -15.550781 17.046875 -15.65625 Z M 17 -35.4375 "/></g></g></g><g fill="#ffffff" fill-opacity="1"><g transform="translate(50.2743, 55.228345)"><g><path d="M 11.546875 0.40625 C 9.546875 0.40625 7.789062 0.015625 6.28125 -0.765625 C 4.769531 -1.554688 3.601562 -2.664062 2.78125 -4.09375 C 1.957031 -5.519531 1.546875 -7.160156 1.546875 -9.015625 L 1.546875 -10.515625 C 1.546875 -10.679688 1.601562 -10.820312 1.71875 -10.9375 C 1.84375 -11.0625 1.988281 -11.125 2.15625 -11.125 L 8.09375 -11.125 C 8.257812 -11.125 8.398438 -11.0625 8.515625 -10.9375 C 8.640625 -10.820312 8.703125 -10.679688 8.703125 -10.515625 L 8.703125 -9.375 C 8.703125 -8.3125 8.976562 -7.453125 9.53125 -6.796875 C 10.082031 -6.148438 10.769531 -5.828125 11.59375 -5.828125 C 12.414062 -5.828125 13.097656 -6.132812 13.640625 -6.75 C 14.191406 -7.363281 14.46875 -8.171875 14.46875 -9.171875 C 14.46875 -10.203125 14.125 -11.085938 13.4375 -11.828125 C 12.757812 -12.566406 11.421875 -13.65625 9.421875 -15.09375 C 7.710938 -16.332031 6.320312 -17.429688 5.25 -18.390625 C 4.1875 -19.347656 3.273438 -20.53125 2.515625 -21.9375 C 1.765625 -23.351562 1.390625 -24.988281 1.390625 -26.84375 C 1.390625 -29.757812 2.300781 -32.09375 4.125 -33.84375 C 5.945312 -35.59375 8.347656 -36.46875 11.328125 -36.46875 C 14.347656 -36.46875 16.773438 -35.554688 18.609375 -33.734375 C 20.453125 -31.921875 21.375 -29.535156 21.375 -26.578125 L 21.375 -25.34375 C 21.375 -25.175781 21.3125 -25.03125 21.1875 -24.90625 C 21.070312 -24.789062 20.929688 -24.734375 20.765625 -24.734375 L 14.84375 -24.734375 C 14.664062 -24.734375 14.515625 -24.789062 14.390625 -24.90625 C 14.273438 -25.03125 14.21875 -25.175781 14.21875 -25.34375 L 14.21875 -26.734375 C 14.21875 -27.796875 13.953125 -28.644531 13.421875 -29.28125 C 12.890625 -29.914062 12.191406 -30.234375 11.328125 -30.234375 C 10.503906 -30.234375 9.832031 -29.929688 9.3125 -29.328125 C 8.800781 -28.734375 8.546875 -27.90625 8.546875 -26.84375 C 8.546875 -25.8125 8.875 -24.898438 9.53125 -24.109375 C 10.1875 -23.316406 11.472656 -22.21875 13.390625 -20.8125 C 15.523438 -19.226562 17.128906 -17.945312 18.203125 -16.96875 C 19.285156 -15.988281 20.128906 -14.90625 20.734375 -13.71875 C 21.335938 -12.539062 21.640625 -11.128906 21.640625 -9.484375 C 21.640625 -6.460938 20.710938 -4.054688 18.859375 -2.265625 C 17.003906 -0.484375 14.566406 0.40625 11.546875 0.40625 Z M 11.546875 0.40625 "/></g></g></g><g fill="#ffffff" fill-opacity="1"><g transform="translate(71.754007, 55.228345)"><g><path d="M 22.25 -36.0625 C 22.425781 -36.0625 22.570312 -36 22.6875 -35.875 C 22.8125 -35.757812 22.875 -35.613281 22.875 -35.4375 L 22.875 -30.453125 C 22.875 -30.273438 22.8125 -30.125 22.6875 -30 C 22.570312 -29.882812 22.425781 -29.828125 22.25 -29.828125 L 15.8125 -29.828125 C 15.644531 -29.828125 15.5625 -29.738281 15.5625 -29.5625 L 15.5625 -0.625 C 15.5625 -0.445312 15.5 -0.296875 15.375 -0.171875 C 15.257812 -0.0546875 15.113281 0 14.9375 0 L 8.90625 0 C 8.738281 0 8.59375 -0.0546875 8.46875 -0.171875 C 8.351562 -0.296875 8.296875 -0.445312 8.296875 -0.625 L 8.296875 -29.5625 C 8.296875 -29.738281 8.207031 -29.828125 8.03125 -29.828125 L 1.859375 -29.828125 C 1.679688 -29.828125 1.53125 -29.882812 1.40625 -30 C 1.289062 -30.125 1.234375 -30.273438 1.234375 -30.453125 L 1.234375 -35.4375 C 1.234375 -35.613281 1.289062 -35.757812 1.40625 -35.875 C 1.53125 -36 1.679688 -36.0625 1.859375 -36.0625 Z M 22.25 -36.0625 "/></g></g></g><g fill="#ffffff" fill-opacity="1"><g transform="translate(94.469957, 55.228345)"><g><path d="M 17.40625 0 C 17 0 16.78125 -0.1875 16.75 -0.5625 L 15.921875 -5.515625 C 15.921875 -5.679688 15.816406 -5.765625 15.609375 -5.765625 L 9.0625 -5.765625 C 8.851562 -5.765625 8.75 -5.679688 8.75 -5.515625 L 7.9375 -0.5625 C 7.894531 -0.1875 7.671875 0 7.265625 0 L 1.234375 0 C 0.785156 0 0.613281 -0.222656 0.71875 -0.671875 L 8.296875 -35.5 C 8.359375 -35.875 8.582031 -36.0625 8.96875 -36.0625 L 15.921875 -36.0625 C 16.296875 -36.0625 16.519531 -35.875 16.59375 -35.5 L 24.109375 -0.671875 L 24.15625 -0.46875 C 24.15625 -0.15625 23.96875 0 23.59375 0 Z M 9.78125 -11.640625 C 9.78125 -11.472656 9.851562 -11.390625 10 -11.390625 L 14.625 -11.390625 C 14.800781 -11.390625 14.875 -11.472656 14.84375 -11.640625 L 12.421875 -25.703125 C 12.378906 -25.804688 12.320312 -25.859375 12.25 -25.859375 C 12.1875 -25.859375 12.140625 -25.804688 12.109375 -25.703125 Z M 9.78125 -11.640625 "/></g></g></g><g fill="#ffffff" fill-opacity="1"><g transform="translate(117.907042, 55.228345)"><g><path d="M 17 -35.4375 C 17 -35.613281 17.054688 -35.757812 17.171875 -35.875 C 17.296875 -36 17.445312 -36.0625 17.625 -36.0625 L 23.59375 -36.0625 C 23.769531 -36.0625 23.914062 -36 24.03125 -35.875 C 24.15625 -35.757812 24.21875 -35.613281 24.21875 -35.4375 L 24.21875 -0.625 C 24.21875 -0.445312 24.15625 -0.296875 24.03125 -0.171875 C 23.914062 -0.0546875 23.769531 0 23.59375 0 L 16.796875 0 C 16.453125 0 16.226562 -0.171875 16.125 -0.515625 L 9.734375 -20.453125 C 9.703125 -20.554688 9.640625 -20.597656 9.546875 -20.578125 C 9.460938 -20.566406 9.421875 -20.507812 9.421875 -20.40625 L 9.484375 -0.625 C 9.484375 -0.445312 9.421875 -0.296875 9.296875 -0.171875 C 9.179688 -0.0546875 9.035156 0 8.859375 0 L 2.890625 0 C 2.710938 0 2.5625 -0.0546875 2.4375 -0.171875 C 2.320312 -0.296875 2.265625 -0.445312 2.265625 -0.625 L 2.265625 -35.4375 C 2.265625 -35.613281 2.320312 -35.757812 2.4375 -35.875 C 2.5625 -36 2.710938 -36.0625 2.890625 -36.0625 L 9.640625 -36.0625 C 9.984375 -36.0625 10.203125 -35.890625 10.296875 -35.546875 L 16.75 -15.609375 C 16.78125 -15.503906 16.835938 -15.457031 16.921875 -15.46875 C 17.003906 -15.488281 17.046875 -15.550781 17.046875 -15.65625 Z M 17 -35.4375 "/></g></g></g><g fill="#ffffff" fill-opacity="1"><g transform="translate(142.992464, 55.228345)"><g><path d="M 22.25 -36.0625 C 22.425781 -36.0625 22.570312 -36 22.6875 -35.875 C 22.8125 -35.757812 22.875 -35.613281 22.875 -35.4375 L 22.875 -30.453125 C 22.875 -30.273438 22.8125 -30.125 22.6875 -30 C 22.570312 -29.882812 22.425781 -29.828125 22.25 -29.828125 L 15.8125 -29.828125 C 15.644531 -29.828125 15.5625 -29.738281 15.5625 -29.5625 L 15.5625 -0.625 C 15.5625 -0.445312 15.5 -0.296875 15.375 -0.171875 C 15.257812 -0.0546875 15.113281 0 14.9375 0 L 8.90625 0 C 8.738281 0 8.59375 -0.0546875 8.46875 -0.171875 C 8.351562 -0.296875 8.296875 -0.445312 8.296875 -0.625 L 8.296875 -29.5625 C 8.296875 -29.738281 8.207031 -29.828125 8.03125 -29.828125 L 1.859375 -29.828125 C 1.679688 -29.828125 1.53125 -29.882812 1.40625 -30 C 1.289062 -30.125 1.234375 -30.273438 1.234375 -30.453125 L 1.234375 -35.4375 C 1.234375 -35.613281 1.289062 -35.757812 1.40625 -35.875 C 1.53125 -36 1.679688 -36.0625 1.859375 -36.0625 Z M 22.25 -36.0625 "/></g></g></g><g fill="#ffffff" fill-opacity="1"><g transform="translate(165.708418, 55.228345)"><g/></g></g><g fill="#016eff" fill-opacity="1"><g transform="translate(174.619923, 55.228345)"><g><path d="M 18.75 -35.65625 C 18.882812 -35.925781 19.144531 -36.0625 19.53125 -36.0625 L 25.5 -36.0625 C 25.664062 -36.0625 25.8125 -36 25.9375 -35.875 C 26.0625 -35.757812 26.125 -35.613281 26.125 -35.4375 L 26.125 -0.625 C 26.125 -0.445312 26.0625 -0.296875 25.9375 -0.171875 C 25.8125 -0.0546875 25.664062 0 25.5 0 L 19.46875 0 C 19.300781 0 19.15625 -0.0546875 19.03125 -0.171875 C 18.914062 -0.296875 18.859375 -0.445312 18.859375 -0.625 L 18.859375 -23.75 C 18.859375 -23.882812 18.820312 -23.953125 18.75 -23.953125 C 18.6875 -23.953125 18.617188 -23.898438 18.546875 -23.796875 L 14.53125 -16.6875 C 14.351562 -16.414062 14.210938 -16.28125 14.109375 -16.28125 C 14.003906 -16.28125 13.867188 -16.414062 13.703125 -16.6875 L 9.6875 -23.796875 C 9.613281 -23.898438 9.539062 -23.953125 9.46875 -23.953125 C 9.40625 -23.953125 9.375 -23.882812 9.375 -23.75 L 9.375 -0.625 C 9.375 -0.445312 9.3125 -0.296875 9.1875 -0.171875 C 9.070312 -0.0546875 8.925781 0 8.75 0 L 2.734375 0 C 2.554688 0 2.40625 -0.0546875 2.28125 -0.171875 C 2.164062 -0.296875 2.109375 -0.445312 2.109375 -0.625 L 2.109375 -35.4375 C 2.109375 -35.613281 2.164062 -35.757812 2.28125 -35.875 C 2.40625 -36 2.554688 -36.0625 2.734375 -36.0625 L 8.65625 -36.0625 C 9 -36.0625 9.253906 -35.925781 9.421875 -35.65625 L 14.015625 -27.453125 C 14.117188 -27.316406 14.222656 -27.316406 14.328125 -27.453125 Z M 18.75 -35.65625 "/></g></g></g><g fill="#00bf63" fill-opacity="1"><g transform="translate(201.457226, 55.228345)"><g><path d="M 17.40625 0 C 17 0 16.78125 -0.1875 16.75 -0.5625 L 15.921875 -5.515625 C 15.921875 -5.679688 15.816406 -5.765625 15.609375 -5.765625 L 9.0625 -5.765625 C 8.851562 -5.765625 8.75 -5.679688 8.75 -5.515625 L 7.9375 -0.5625 C 7.894531 -0.1875 7.671875 0 7.265625 0 L 1.234375 0 C 0.785156 0 0.613281 -0.222656 0.71875 -0.671875 L 8.296875 -35.5 C 8.359375 -35.875 8.582031 -36.0625 8.96875 -36.0625 L 15.921875 -36.0625 C 16.296875 -36.0625 16.519531 -35.875 16.59375 -35.5 L 24.109375 -0.671875 L 24.15625 -0.46875 C 24.15625 -0.15625 23.96875 0 23.59375 0 Z M 9.78125 -11.640625 C 9.78125 -11.472656 9.851562 -11.390625 10 -11.390625 L 14.625 -11.390625 C 14.800781 -11.390625 14.875 -11.472656 14.84375 -11.640625 L 12.421875 -25.703125 C 12.378906 -25.804688 12.320312 -25.859375 12.25 -25.859375 C 12.1875 -25.859375 12.140625 -25.804688 12.109375 -25.703125 Z M 9.78125 -11.640625 "/></g></g></g><g fill="#ffde59" fill-opacity="1"><g transform="translate(224.894905, 55.228345)"><g><path d="M 17 -35.4375 C 17 -35.613281 17.054688 -35.757812 17.171875 -35.875 C 17.296875 -36 17.445312 -36.0625 17.625 -36.0625 L 23.59375 -36.0625 C 23.769531 -36.0625 23.914062 -36 24.03125 -35.875 C 24.15625 -35.757812 24.21875 -35.613281 24.21875 -35.4375 L 24.21875 -0.625 C 24.21875 -0.445312 24.15625 -0.296875 24.03125 -0.171875 C 23.914062 -0.0546875 23.769531 0 23.59375 0 L 16.796875 0 C 16.453125 0 16.226562 -0.171875 16.125 -0.515625 L 9.734375 -20.453125 C 9.703125 -20.554688 9.640625 -20.597656 9.546875 -20.578125 C 9.460938 -20.566406 9.421875 -20.507812 9.421875 -20.40625 L 9.484375 -0.625 C 9.484375 -0.445312 9.421875 -0.296875 9.296875 -0.171875 C 9.179688 -0.0546875 9.035156 0 8.859375 0 L 2.890625 0 C 2.710938 0 2.5625 -0.0546875 2.4375 -0.171875 C 2.320312 -0.296875 2.265625 -0.445312 2.265625 -0.625 L 2.265625 -35.4375 C 2.265625 -35.613281 2.320312 -35.757812 2.4375 -35.875 C 2.5625 -36 2.710938 -36.0625 2.890625 -36.0625 L 9.640625 -36.0625 C 9.984375 -36.0625 10.203125 -35.890625 10.296875 -35.546875 L 16.75 -15.609375 C 16.78125 -15.503906 16.835938 -15.457031 16.921875 -15.46875 C 17.003906 -15.488281 17.046875 -15.550781 17.046875 -15.65625 Z M 17 -35.4375 "/></g></g></g><g fill="#ff5c00" fill-opacity="1"><g transform="translate(249.98108, 55.228345)"><g><path d="M 2.890625 0 C 2.710938 0 2.5625 -0.0546875 2.4375 -0.171875 C 2.320312 -0.296875 2.265625 -0.445312 2.265625 -0.625 L 2.265625 -35.4375 C 2.265625 -35.613281 2.320312 -35.757812 2.4375 -35.875 C 2.5625 -36 2.710938 -36.0625 2.890625 -36.0625 L 8.90625 -36.0625 C 9.082031 -36.0625 9.226562 -36 9.34375 -35.875 C 9.46875 -35.757812 9.53125 -35.613281 9.53125 -35.4375 L 9.53125 -0.625 C 9.53125 -0.445312 9.46875 -0.296875 9.34375 -0.171875 C 9.226562 -0.0546875 9.082031 0 8.90625 0 Z M 2.890625 0 "/></g></g></g><g fill="#ff3131" fill-opacity="1"><g transform="translate(260.437889, 55.228345)"><g><path d="M 17.40625 0 C 17 0 16.78125 -0.1875 16.75 -0.5625 L 15.921875 -5.515625 C 15.921875 -5.679688 15.816406 -5.765625 15.609375 -5.765625 L 9.0625 -5.765625 C 8.851562 -5.765625 8.75 -5.679688 8.75 -5.515625 L 7.9375 -0.5625 C 7.894531 -0.1875 7.671875 0 7.265625 0 L 1.234375 0 C 0.785156 0 0.613281 -0.222656 0.71875 -0.671875 L 8.296875 -35.5 C 8.359375 -35.875 8.582031 -36.0625 8.96875 -36.0625 L 15.921875 -36.0625 C 16.296875 -36.0625 16.519531 -35.875 16.59375 -35.5 L 24.109375 -0.671875 L 24.15625 -0.46875 C 24.15625 -0.15625 23.96875 0 23.59375 0 Z M 9.78125 -11.640625 C 9.78125 -11.472656 9.851562 -11.390625 10 -11.390625 L 14.625 -11.390625 C 14.800781 -11.390625 14.875 -11.472656 14.84375 -11.640625 L 12.421875 -25.703125 C 12.378906 -25.804688 12.320312 -25.859375 12.25 -25.859375 C 12.1875 -25.859375 12.140625 -25.804688 12.109375 -25.703125 Z M 9.78125 -11.640625 "/></g></g></g></svg>